<?xml version="1.0" standalone="no"?>
<!DOCTYPE svg PUBLIC "-//W3C//DTD SVG 20010904//EN"
 "http://www.w3.org/TR/2001/REC-SVG-20010904/DTD/svg10.dtd">
<svg version="1.0" xmlns="http://www.w3.org/2000/svg"
 width="612.000000pt" height="408.000000pt" viewBox="0 0 612.000000 408.000000"
 preserveAspectRatio="xMidYMid meet">

<g transform="translate(0.000000,408.000000) scale(0.100000,-0.100000)"
fill="#000000" stroke="none">
<path d="M2779 3986 c-4 -4 -139 -33 -188 -41 -14 -2 -43 -6 -64 -9 -21 -3
-51 -13 -67 -21 -17 -9 -33 -16 -37 -16 -5 -1 -19 -5 -31 -10 -13 -5 -28 -7
-33 -3 -5 3 -9 1 -9 -3 0 -5 -17 -15 -37 -22 -21 -8 -72 -29 -113 -48 -41 -19
-91 -37 -110 -40 -47 -8 -82 -26 -160 -84 -83 -61 -132 -112 -134 -139 -1 -22
-109 -153 -135 -165 -8 -3 -18 0 -23 7 -6 8 -7 5 -3 -10 7 -24 -11 -56 -26
-46 -15 9 -55 -42 -122 -155 -69 -114 -94 -174 -77 -179 5 -2 10 -13 10 -23 0
-11 -4 -18 -9 -14 -5 3 -13 0 -17 -6 -5 -8 -3 -9 6 -4 10 6 12 4 7 -9 -4 -10
-7 -24 -7 -32 0 -9 -4 -13 -9 -10 -5 4 -7 -4 -3 -16 3 -13 1 -19 -6 -15 -6 5
-13 -8 -17 -33 -6 -35 -29 -94 -42 -110 -3 -3 -24 18 -47 45 l-43 50 -126 0
c-87 0 -130 4 -139 13 -6 6 -26 12 -44 12 -39 0 -52 -30 -23 -56 16 -14 24
-15 45 -6 14 7 76 12 146 12 l121 0 73 -78 73 -78 61 4 c34 3 66 0 71 -5 5 -5
6 -24 3 -41 l-6 -32 -104 0 -103 0 -79 80 -79 81 -78 -3 c-52 -2 -80 -7 -83
-15 -3 -10 17 -13 75 -13 l78 0 80 -80 80 -80 102 0 103 0 0 -30 0 -30 -148 0
-148 0 -74 75 -74 75 -127 0 c-93 0 -134 4 -155 15 -36 18 -45 19 -68 2 -15
-11 -17 -17 -7 -35 12 -23 55 -30 66 -12 4 6 62 10 143 10 l137 0 55 -53 c120
-115 105 -109 259 -105 136 3 136 3 139 -20 3 -17 -2 -25 -17 -29 -33 -8 -26
-40 9 -45 41 -6 47 1 46 52 l-1 45 155 -1 c85 -1 166 -3 180 -5 19 -3 25 0 25
15 0 18 -8 19 -182 17 l-183 -2 0 26 c0 31 7 34 85 38 46 3 61 7 63 20 3 14
-6 15 -67 10 -77 -6 -82 -3 -61 51 7 20 16 26 40 26 16 0 30 5 30 10 0 6 -14
10 -31 10 l-32 0 6 45 c12 81 59 208 89 237 18 16 28 36 28 55 0 37 104 191
201 297 224 246 463 389 762 456 131 30 160 29 205 -7 45 -36 56 -85 23 -103
-12 -6 -21 -19 -21 -30 0 -26 -82 -105 -148 -142 -29 -17 -49 -34 -45 -40 3
-7 1 -8 -6 -4 -15 9 -246 -124 -304 -175 -51 -44 -117 -162 -117 -208 0 -17 4
-31 8 -31 4 0 50 25 102 56 52 31 115 68 140 82 25 14 63 36 85 48 79 46 227
129 263 147 57 30 119 35 182 17 l55 -16 6 -64 c3 -36 6 -56 8 -45 2 18 4 18
24 -7 25 -30 67 -38 67 -13 0 9 7 18 15 21 8 4 15 12 15 20 0 7 9 20 21 28 37
25 12 39 -27 15 -19 -12 -37 -19 -39 -17 -8 8 85 68 105 68 32 0 32 18 0 42
-30 22 -31 25 -25 73 4 27 14 61 22 74 15 23 14 24 -6 18 -12 -3 -19 -1 -15 4
7 11 -19 70 -48 112 -16 23 -58 39 -58 22 0 -12 44 -92 67 -123 28 -37 41 -96
24 -106 -7 -5 -11 3 -11 22 0 34 -156 276 -198 307 -17 12 -10 0 19 -32 56
-63 163 -263 149 -277 -7 -7 -10 -6 -10 3 0 7 -27 47 -59 90 -33 43 -70 96
-83 118 -35 61 -49 77 -97 111 -47 34 -42 41 14 18 19 -8 35 -13 35 -11 0 13
-79 48 -132 58 l-63 11 78 7 c43 4 81 9 84 12 3 4 2 22 -1 42 l-7 35 -68 0
c-37 0 -70 -2 -72 -4z m-29 -84 c0 -4 -19 -8 -42 -9 -36 -2 -57 -14 -58 -34 0
-3 9 -15 21 -27 23 -26 26 -24 -81 -45 -156 -31 -351 -123 -522 -247 -110 -79
-278 -255 -349 -365 -36 -55 -79 -120 -95 -145 -34 -53 -79 -174 -103 -280
l-17 -75 -63 -3 c-49 -2 -68 1 -82 14 -26 24 -24 34 9 34 25 0 29 5 45 63 32
107 76 208 144 327 125 217 225 339 383 467 145 117 278 191 469 260 144 52
341 90 341 65z m-15 -463 c-103 -63 -290 -169 -300 -169 -22 0 30 34 175 114
155 85 219 113 125 55z m511 -56 c-6 -7 -45 20 -51 34 -2 7 9 3 25 -9 16 -12
28 -23 26 -25z"/>
<path d="M3066 3965 c-3 -9 -6 -23 -6 -30 0 -17 53 -35 105 -35 45 0 61 -16
50 -50 -3 -10 -1 -28 4 -41 8 -22 21 -27 107 -43 177 -33 340 -101 504 -211
176 -118 336 -275 442 -435 84 -126 215 -426 195 -447 -4 -4 -42 -10 -85 -14
l-77 -6 87 -1 c87 -2 88 -2 94 -29 3 -16 7 -34 9 -40 3 -10 -43 -13 -197 -15
-148 -2 -202 -6 -205 -15 -4 -10 44 -13 204 -15 l208 -3 3 -25 c2 -20 -4 -28
-35 -42 l-38 -17 30 0 c55 2 56 1 53 -33 -3 -32 -4 -33 -50 -33 -42 0 -68 -9
-57 -19 4 -4 229 -10 292 -7 24 0 37 6 37 15 0 18 -32 25 -105 22 -33 -2 -66
-1 -72 2 -14 4 -18 52 -5 53 4 0 55 1 115 1 59 1 107 5 107 9 0 5 -53 10 -117
11 l-118 3 -3 33 -3 32 112 0 112 0 68 65 67 65 82 0 c53 0 91 -5 111 -15 38
-20 75 -5 59 25 -15 28 -27 32 -51 19 -13 -6 -61 -11 -114 -10 l-92 2 -61 -61
c-38 -37 -70 -60 -84 -61 -13 0 -65 -2 -115 -4 -102 -4 -113 2 -113 59 0 26 1
26 79 26 65 0 81 3 92 19 8 10 45 55 82 100 l69 81 52 0 c29 0 67 -7 83 -15
38 -19 65 -10 61 19 -3 20 -7 21 -98 17 l-95 -3 -104 -104 -105 -104 -57 0
c-63 0 -73 7 -84 60 -9 41 -76 215 -108 280 -22 43 -87 148 -107 173 -6 7 -31
39 -57 72 -77 99 -202 217 -307 290 -32 22 -71 52 -87 68 -16 15 -40 27 -52
27 -31 1 -57 23 -57 49 0 18 -6 21 -43 21 -24 0 -79 13 -123 29 -66 24 -142
43 -301 77 -20 4 -23 11 -23 49 0 42 2 45 28 45 44 -1 195 -37 295 -71 129
-44 295 -128 407 -207 115 -81 281 -245 373 -367 74 -98 187 -317 233 -452 28
-81 29 -83 61 -83 40 0 40 3 7 105 l-25 80 20 16 c12 10 21 23 21 31 0 7 -25
63 -56 123 -124 241 -307 463 -503 610 -66 49 -79 54 -110 49 -62 -10 -75 -7
-132 28 -53 32 -224 111 -299 138 -175 62 -469 102 -484 65z m1239 -565 c10
-11 16 -20 13 -20 -3 0 -13 9 -23 20 -10 11 -16 20 -13 20 3 0 13 -9 23 -20z
m50 -60 c10 -11 16 -20 13 -20 -3 0 -13 9 -23 20 -10 11 -16 20 -13 20 3 0 13
-9 23 -20z m36 -47 c13 -16 12 -17 -3 -4 -10 7 -18 15 -18 17 0 8 8 3 21 -13z
m39 -53 c6 -11 8 -20 6 -20 -3 0 -10 9 -16 20 -6 11 -8 20 -6 20 3 0 10 -9 16
-20z"/>
<path d="M3089 3737 c5 -5 19 -7 32 -5 20 3 19 5 -9 9 -20 3 -29 2 -23 -4z"/>
<path d="M3220 3626 c0 -2 7 -9 15 -16 13 -11 14 -10 9 4 -5 14 -24 23 -24 12z"/>
<path d="M3271 3324 c0 -11 3 -14 6 -6 3 7 2 16 -1 19 -3 4 -6 -2 -5 -13z"/>
<path d="M2238 3264 c-23 -20 -52 -49 -63 -65 -11 -16 -25 -27 -32 -24 -6 2
-17 -3 -24 -11 -7 -8 -18 -13 -26 -10 -14 6 -161 -71 -195 -102 -35 -30 -12
-124 39 -158 25 -16 28 -16 80 10 49 24 54 25 60 9 17 -51 43 -100 62 -120 28
-30 94 -63 123 -63 21 0 20 2 -9 20 -39 23 -87 88 -104 137 -10 30 -9 65 3
161 1 6 4 12 8 12 3 0 6 10 7 21 3 32 30 87 80 157 24 34 42 62 39 62 -2 0
-24 -16 -48 -36z m-118 -155 c-24 -59 -37 -79 -26 -39 10 37 39 101 43 96 2
-2 -6 -28 -17 -57z m-30 -119 c-6 -37 -8 -40 -9 -13 -1 29 8 68 14 61 1 -2 -1
-23 -5 -48z"/>
<path d="M2878 3253 c7 -3 16 -2 19 1 4 3 -2 6 -13 5 -11 0 -14 -3 -6 -6z"/>
<path d="M3248 3213 c-77 -44 -158 -67 -158 -44 0 6 -11 11 -25 11 -29 0 -33
-16 -6 -25 10 -3 26 -14 36 -25 22 -24 48 -26 65 -5 8 10 25 15 44 13 26 -2
32 1 34 20 4 27 46 31 56 6 5 -14 12 -9 35 21 23 32 27 42 17 57 -6 10 -13 18
-16 17 -3 -1 -40 -21 -82 -46z"/>
<path d="M2950 3210 c0 -5 5 -10 11 -10 5 0 7 5 4 10 -3 6 -8 10 -11 10 -2 0
-4 -4 -4 -10z"/>
<path d="M3480 3198 c0 -25 17 -40 40 -36 33 4 35 22 5 36 -33 15 -45 15 -45
0z"/>
<path d="M2825 3193 c6 -5 34 -26 63 -47 28 -21 52 -44 52 -51 0 -7 11 -16 24
-19 13 -3 31 -9 40 -12 32 -12 15 12 -36 51 -28 22 -59 47 -68 55 -9 8 -23 17
-31 19 -50 13 -54 13 -44 4z"/>
<path d="M3457 3173 c-4 -3 -7 -11 -7 -17 0 -6 5 -5 12 2 6 6 9 14 7 17 -3 3
-9 2 -12 -2z"/>
<path d="M2990 3155 c0 -15 58 -51 67 -41 3 3 -2 17 -11 31 -18 27 -56 34 -56
10z"/>
<path d="M2698 3134 c-16 -8 -28 -18 -28 -23 0 -13 58 -34 75 -27 10 3 15 -1
15 -12 0 -15 2 -15 10 -2 6 10 6 16 0 18 -6 2 -7 15 -4 29 5 17 3 24 -4 19 -6
-3 -13 -2 -17 4 -8 13 -14 12 -47 -6z"/>
<path d="M2810 3121 c0 -16 30 -33 47 -26 16 6 15 8 -7 20 -29 17 -40 18 -40
6z"/>
<path d="M3536 3105 c-10 -8 -24 -16 -30 -19 -8 -3 -7 -7 2 -14 9 -6 1 -13
-30 -26 -34 -13 -40 -19 -28 -26 19 -12 83 -13 75 -1 -3 5 9 19 26 32 17 12
26 24 21 28 -5 3 -11 14 -13 23 -4 15 -6 15 -23 3z"/>
<path d="M2917 3040 c-5 -18 -15 -20 -143 -23 -116 -2 -106 -3 64 -5 113 -1
202 2 202 7 0 11 -73 41 -99 41 -10 0 -21 -9 -24 -20z"/>
<path d="M2364 3004 c-7 -3 -9 -14 -6 -26 4 -16 2 -19 -9 -13 -12 8 -12 6 0
-8 7 -9 11 -26 8 -37 -3 -11 -1 -23 4 -26 5 -3 9 0 9 7 0 6 9 1 21 -12 11 -13
18 -19 15 -12 -8 15 30 5 44 -12 6 -8 17 -12 25 -9 17 7 75 -22 98 -50 10 -11
16 -15 12 -8 -6 11 -4 12 11 3 31 -17 54 -38 54 -46 0 -5 -10 0 -23 11 -13 10
-8 5 11 -13 19 -18 39 -31 44 -30 6 1 13 -4 16 -12 3 -8 0 -11 -7 -7 -6 4 3
-15 20 -43 28 -45 30 -54 25 -113 -6 -78 -8 -87 -15 -85 -3 1 -22 -8 -41 -20
-19 -12 -47 -25 -62 -28 -25 -6 -28 -12 -28 -50 0 -24 4 -55 10 -70 l10 -26
151 3 152 3 73 115 c40 63 78 116 84 118 18 6 36 -15 105 -128 l67 -110 159 0
159 0 -2 68 -2 67 -3 -57 c-2 -32 -7 -58 -12 -58 -4 0 -6 13 -3 30 7 49 -5 77
-35 85 -89 22 -152 132 -108 191 13 17 13 15 3 -17 -13 -43 -6 -77 22 -109 24
-27 26 -19 5 14 -14 22 -19 62 -13 123 1 12 4 20 6 18 3 -2 19 7 37 20 17 14
37 25 44 25 7 0 26 7 44 17 18 9 69 26 115 39 85 23 152 57 152 76 0 6 3 8 6
5 8 -8 64 24 64 36 0 5 -7 4 -15 -3 -10 -9 -15 -9 -15 -1 0 6 4 11 10 11 14 0
100 112 94 122 -3 4 -33 7 -67 6 -36 -1 -48 -3 -29 -5 20 -3 32 -9 29 -16 -2
-8 -39 -14 -98 -18 -52 -3 -109 -9 -126 -13 -28 -7 -33 -5 -33 12 0 10 10 24
23 30 22 11 22 11 -5 11 -20 1 -31 -8 -47 -34 -11 -19 -27 -35 -36 -35 -12 0
-15 -18 -17 -102 l-1 -103 -12 120 c-7 66 -13 107 -14 92 -1 -19 -7 -31 -20
-34 -22 -6 -38 -36 -22 -41 18 -6 12 -33 -6 -31 -37 3 -43 -2 -43 -33 l0 -33
-20 30 c-21 30 -21 30 -15 4 5 -19 -1 -38 -19 -67 -35 -56 -62 -71 -35 -20 12
22 4 68 -11 68 -5 0 -18 -17 -28 -37 -40 -79 -67 -123 -77 -123 -5 0 -35 41
-65 90 -30 49 -58 90 -61 90 -4 0 -9 -14 -13 -30 -4 -23 1 -41 20 -71 14 -23
23 -43 21 -45 -2 -3 -12 7 -21 21 -21 32 -39 32 -65 -1 -25 -32 -26 -28 -5 15
25 50 11 58 -19 10 -24 -39 -26 -41 -21 -14 6 28 4 26 -31 -19 l-38 -48 -26
41 c-16 25 -34 41 -46 41 -15 0 -17 2 -6 9 11 7 10 15 -4 44 -9 20 -22 40 -29
46 -16 14 -15 -96 2 -129 10 -20 7 -18 -17 9 -16 18 -27 39 -25 45 3 7 -7 23
-21 36 -14 13 -25 32 -25 41 0 12 -11 22 -32 28 -32 9 -32 9 -5 10 22 1 27 6
27 26 0 23 -4 25 -42 25 -24 0 -38 4 -32 8 7 4 13 16 15 27 3 12 14 21 27 23
18 3 22 -1 22 -22 0 -22 4 -26 30 -26 36 0 36 4 10 64 l-21 46 -180 0 c-118 0
-178 3 -174 10 7 11 6 11 -11 4z m242 -80 c-4 -9 -9 -15 -11 -12 -3 3 -3 13 1
22 4 9 9 15 11 12 3 -3 3 -13 -1 -22z m1224 -4 c0 -5 -6 -10 -13 -10 -7 0 -23
-9 -35 -20 -23 -22 -42 -26 -42 -10 0 6 -9 10 -19 10 -34 0 -33 19 1 24 106
17 108 18 108 6z m-140 -169 c-8 -5 -26 -12 -40 -15 l-25 -7 25 15 c14 9 32
15 40 15 13 0 13 -1 0 -8z m-370 -141 c-16 -31 -23 -18 -8 15 7 15 14 23 16
17 2 -6 -2 -21 -8 -32z m55 -170 c4 -6 27 -21 53 -35 l47 -24 -35 0 c-19 -1
-40 3 -45 7 -18 12 -46 62 -36 62 5 0 13 -5 16 -10z m-601 -34 c-3 -8 -19 -16
-35 -18 -36 -6 -36 -3 -1 16 34 19 43 20 36 2z"/>
<path d="M3557 2973 c-7 -44 -2 -52 19 -31 10 10 13 24 8 41 -9 38 -20 33 -27
-10z"/>
<path d="M3995 2989 c-4 -6 -5 -12 -2 -15 2 -3 7 2 10 11 7 17 1 20 -8 4z"/>
<path d="M2786 2982 c-4 -7 28 -79 70 -162 l77 -150 23 33 c12 19 42 69 66
112 23 43 48 80 53 82 6 1 19 -13 30 -32 64 -111 111 -185 117 -185 13 0 103
198 94 207 -9 9 -35 -11 -38 -30 -4 -27 -48 -38 -48 -12 0 15 -38 37 -52 29
-4 -3 -9 5 -13 16 -3 11 -12 20 -18 21 -7 1 -19 2 -27 3 -8 2 -25 3 -38 4 -18
2 -22 6 -17 21 3 10 -1 23 -8 29 -19 16 -262 28 -271 14z m174 -47 c0 -8 -4
-15 -10 -15 -5 0 -10 7 -10 15 0 8 5 15 10 15 6 0 10 -7 10 -15z m60 -56 c0
-24 -23 -21 -28 4 -2 10 3 17 12 17 10 0 16 -9 16 -21z m188 -66 c-10 -2 -26
-2 -35 0 -10 3 -2 5 17 5 19 0 27 -2 18 -5z"/>
<path d="M3743 2973 c15 -2 39 -2 55 0 15 2 2 4 -28 4 -30 0 -43 -2 -27 -4z"/>
<path d="M2744 2855 c3 -9 6 -19 6 -21 0 -2 9 -4 21 -4 29 0 21 34 -10 38 -19
3 -22 0 -17 -13z"/>
<path d="M3375 2840 c-3 -5 1 -10 10 -10 9 0 13 5 10 10 -3 6 -8 10 -10 10 -2
0 -7 -4 -10 -10z"/>
<path d="M3336 2785 c-3 -8 -1 -15 4 -15 6 0 10 7 10 15 0 8 -2 15 -4 15 -2 0
-6 -7 -10 -15z"/>
<path d="M1730 2570 c0 -16 3 -30 8 -30 4 0 17 -3 30 -6 20 -6 22 -3 22 30 0
33 -2 36 -30 36 -27 0 -30 -3 -30 -30z"/>
<path d="M4950 2553 c-8 -3 -19 -10 -25 -17 -33 -37 -80 -66 -107 -66 -37 0
-30 -12 9 -16 20 -2 37 8 71 41 41 41 49 45 94 45 30 0 47 4 43 10 -6 10 -59
12 -85 3z"/>
<path d="M5084 2551 c7 -11 176 -10 176 1 0 4 -41 8 -91 8 -49 0 -88 -4 -85
-9z"/>
<path d="M5325 2550 c-33 -6 -35 -7 -12 -9 16 0 42 -11 59 -22 27 -20 31 -20
45 -6 9 8 13 23 10 31 -7 17 -33 18 -102 6z"/>
<path d="M4230 2466 c0 -20 11 -25 42 -19 23 4 25 7 13 19 -18 18 -55 18 -55
0z"/>
<path d="M4305 2467 c4 -8 20 -11 53 -8 43 4 45 5 17 12 -50 11 -75 10 -70 -4z"/>
<path d="M885 2460 c3 -5 8 -10 11 -10 2 0 4 5 4 10 0 6 -5 10 -11 10 -5 0 -7
-4 -4 -10z"/>
<path d="M1530 2380 c0 -5 5 -10 10 -10 6 0 10 5 10 10 0 6 -4 10 -10 10 -5 0
-10 -4 -10 -10z"/>
<path d="M1580 2374 c0 -9 7 -14 17 -12 25 5 28 28 4 28 -12 0 -21 -6 -21 -16z"/>
<path d="M4170 2375 c0 -8 7 -15 15 -15 8 0 15 7 15 15 0 8 -7 15 -15 15 -8 0
-15 -7 -15 -15z"/>
<path d="M4250 2375 c0 -8 9 -15 20 -15 11 0 20 7 20 15 0 8 -9 15 -20 15 -11
0 -20 -7 -20 -15z"/>
<path d="M4330 2376 c0 -10 9 -16 21 -16 24 0 21 23 -4 28 -10 2 -17 -3 -17
-12z"/>
<path d="M620 1995 l0 -245 45 0 44 0 3 98 3 97 30 3 c26 2 43 -10 130 -98
l100 -100 67 0 68 0 0 45 0 45 -47 0 c-46 0 -51 3 -120 72 -40 40 -73 77 -73
84 0 6 33 43 74 82 70 68 76 72 120 72 l46 0 0 45 0 45 -68 0 -67 0 -100 -100
c-87 -88 -104 -100 -130 -98 l-30 3 -3 98 -3 97 -44 0 -45 0 0 -245z"/>
<path d="M1199 2211 l-29 -29 0 -187 0 -187 29 -29 29 -29 187 0 187 0 29 29
29 29 0 187 0 187 -29 29 -29 29 -187 0 -187 0 -29 -29z m366 -216 l0 -150
-150 0 -150 0 -3 140 c-1 76 0 145 2 152 4 11 38 13 153 11 l148 -3 0 -150z"/>
<path d="M1720 1995 l0 -245 216 0 216 0 29 30 30 30 -3 191 -3 191 -28 24
c-28 24 -30 24 -243 24 l-214 0 0 -245z m390 0 l0 -155 -150 0 -150 0 0 148
c0 82 3 152 7 155 3 4 71 7 150 7 l143 0 0 -155z"/>
<path d="M2315 2229 c-46 -22 -50 -42 -53 -266 l-3 -213 50 0 51 0 0 100 0
100 150 0 150 0 0 -100 0 -100 50 0 50 0 0 205 c0 218 -6 251 -49 275 -25 13
-369 12 -396 -1z m345 -134 l0 -55 -150 0 -150 0 0 55 0 55 150 0 150 0 0 -55z"/>
<path d="M2865 2229 c-46 -22 -50 -42 -53 -266 l-3 -213 50 0 51 0 0 100 0
100 200 0 200 0 0 45 0 45 -200 0 -200 0 0 55 0 55 200 0 200 0 0 45 0 45
-212 -1 c-120 0 -222 -5 -233 -10z"/>
<path d="M3404 2225 c-40 -27 -46 -62 -42 -250 l3 -177 28 -24 c28 -24 32 -24
216 -24 l188 0 26 26 c34 34 40 77 35 255 -3 153 -10 178 -55 198 -14 7 -96
11 -201 11 -140 0 -182 -3 -198 -15z m354 -232 l3 -153 -151 0 -150 0 0 155 0
156 148 -3 147 -3 3 -152z"/>
<path d="M3910 1995 l0 -245 44 0 c41 0 45 2 51 30 4 16 6 42 5 57 -1 16 -2
47 -1 71 1 39 3 42 29 42 21 0 49 -21 127 -100 l100 -100 67 0 68 0 0 45 0 45
-48 0 c-44 0 -52 4 -95 48 -26 26 -47 51 -47 55 0 4 31 7 69 7 60 0 71 3 95
26 24 25 26 33 26 116 0 86 -1 91 -29 119 l-29 29 -216 0 -216 0 0 -245z m398
98 l3 -53 -150 0 -151 0 0 55 0 56 148 -3 147 -3 3 -52z"/>
<path d="M4489 2211 l-29 -29 0 -187 0 -187 29 -29 29 -29 187 0 187 0 29 29
c29 29 29 31 29 145 l0 116 -145 0 -145 0 0 -45 0 -44 98 -3 97 -3 0 -50 0
-50 -150 0 -150 0 0 150 0 150 198 3 197 2 0 45 0 45 -216 0 -216 0 -29 -29z"/>
<path d="M5039 2211 l-29 -29 0 -187 0 -187 29 -29 29 -29 216 0 216 0 0 45 0
45 -197 2 -198 3 0 50 0 50 198 3 197 2 0 45 0 45 -197 2 -198 3 0 50 0 50
198 3 197 2 0 45 0 45 -216 0 -216 0 -29 -29z"/>
<path d="M2945 1593 c-10 -46 -17 -53 -79 -78 l-60 -24 -32 24 c-18 14 -36 25
-39 25 -16 0 -95 -65 -95 -78 0 -9 -6 -12 -17 -7 -13 4 -10 -2 8 -22 32 -34
42 -60 27 -69 -7 -4 -8 -3 -4 4 4 7 5 12 2 12 -2 0 -14 -16 -26 -35 -18 -29
-28 -35 -55 -35 -19 0 -37 -5 -40 -10 -4 -6 -11 -7 -17 -4 -7 4 -8 2 -4 -4 4
-7 -4 -14 -21 -18 -15 -3 -36 -8 -46 -11 -24 -6 -59 18 -129 88 l-57 56 -116
5 c-106 4 -115 3 -115 -14 0 -16 10 -18 111 -18 l110 0 74 -70 c69 -66 77 -70
119 -70 l46 0 -3 -47 -2 -47 45 -11 c34 -8 46 -17 51 -35 15 -54 10 -80 -23
-109 l-31 -28 47 -61 c26 -34 52 -62 58 -62 7 0 26 5 43 12 30 10 36 8 74 -22
37 -30 41 -37 35 -64 -3 -17 -7 -35 -8 -39 -1 -9 75 -41 123 -50 30 -6 33 -4
47 28 14 34 16 35 69 35 54 0 56 -1 72 -36 16 -32 21 -35 49 -31 17 3 53 16
80 29 42 20 48 27 45 48 -2 14 -4 31 -5 39 0 7 16 27 36 44 36 29 39 30 80 18
l43 -13 33 38 c19 22 41 50 50 63 15 22 14 24 -21 55 -33 29 -35 34 -30 74 6
48 11 52 68 68 22 6 39 15 39 20 -1 5 -5 26 -8 47 l-7 37 56 0 c52 0 59 3 103
44 115 107 91 96 224 96 108 0 119 2 116 17 -3 16 -16 17 -123 14 l-120 -3
-76 -74 c-73 -70 -79 -74 -122 -74 -28 0 -52 6 -61 15 -8 9 -18 16 -21 15 -29
-1 -96 28 -106 47 -7 13 -16 23 -21 23 -16 0 -7 48 14 76 13 15 17 25 10 20
-8 -5 -20 1 -33 17 -10 14 -35 35 -54 47 l-35 22 -31 -26 c-31 -27 -54 -33
-63 -17 -3 4 -26 14 -52 21 -29 8 -49 21 -55 34 -8 20 -9 20 -6 -2 2 -19 16
-29 72 -53 l69 -29 26 25 c32 31 45 31 87 3 38 -26 42 -47 13 -73 -11 -10 -20
-22 -20 -26 0 -4 17 -35 38 -68 35 -57 39 -61 75 -61 21 0 36 -4 33 -8 -3 -5
4 -16 15 -26 13 -11 19 -26 17 -44 -3 -22 -9 -28 -45 -35 -37 -7 -43 -12 -43
-34 0 -14 -5 -44 -12 -66 -12 -38 -11 -40 20 -66 18 -14 32 -30 32 -36 0 -5
-13 -25 -28 -43 -28 -34 -29 -34 -70 -22 -39 12 -43 12 -75 -16 -19 -16 -44
-37 -55 -46 -18 -14 -19 -22 -12 -49 5 -17 7 -35 5 -39 -5 -8 -94 -35 -98 -29
-2 2 -11 16 -20 32 -17 26 -22 27 -92 27 -73 0 -75 -1 -90 -31 -17 -32 -26
-33 -90 -9 -21 8 -25 15 -20 33 4 12 9 29 11 38 3 10 -6 23 -23 34 -16 10 -40
29 -55 43 -26 24 -29 25 -69 12 -39 -13 -42 -13 -60 11 -40 50 -41 56 -10 86
l29 28 -12 64 c-12 67 -17 72 -79 86 -24 5 -26 9 -21 33 3 15 14 34 25 43 10
9 15 19 12 23 -4 3 0 6 8 7 8 1 24 2 35 2 15 1 36 22 62 62 l41 60 -26 34 -26
34 31 29 c40 35 62 35 92 3 13 -14 29 -23 35 -21 5 3 37 16 70 30 56 23 60 27
65 63 5 38 6 38 53 41 27 2 55 -2 63 -9 11 -9 14 -8 14 5 0 13 -12 16 -65 16
-62 0 -65 -1 -70 -27z m437 -165 c-7 -7 -12 -8 -12 -2 0 14 12 26 19 19 2 -3
-1 -11 -7 -17z"/>
<path d="M1450 1601 c0 -5 5 -13 10 -16 6 -3 10 -2 10 4 0 5 -4 13 -10 16 -5
3 -10 2 -10 -4z"/>
<path d="M3101 1584 c0 -11 3 -14 6 -6 3 7 2 16 -1 19 -3 4 -6 -2 -5 -13z"/>
<path d="M4406 1473 c-104 -185 -72 -167 -294 -173 l-189 -5 -93 -87 -92 -88
-79 0 c-43 0 -81 -4 -84 -10 -4 -6 29 -10 92 -10 l98 0 85 85 85 85 189 0 189
0 101 100 102 100 314 -1 c268 0 318 -3 341 -16 45 -27 90 10 55 45 -13 14
-21 14 -49 4 -24 -9 -129 -12 -353 -13 l-319 0 -52 -52 c-29 -28 -53 -45 -53
-38 0 8 18 42 40 77 22 35 40 68 40 74 0 6 32 10 80 10 64 0 80 3 80 15 0 12
-16 15 -84 15 l-84 0 -66 -117z"/>
<path d="M4722 1573 c2 -10 13 -19 26 -21 17 -3 22 2 22 17 0 16 -6 21 -26 21
-19 0 -25 -5 -22 -17z"/>
<path d="M1460 1558 c0 -10 -61 -13 -276 -11 -152 1 -278 4 -282 7 -10 10 -48
6 -60 -6 -18 -18 -14 -46 7 -58 28 -14 38 -13 60 9 17 17 41 20 216 26 108 3
227 3 265 -1 l69 -7 118 -105 c65 -57 126 -113 136 -123 16 -17 35 -19 214
-19 l197 0 87 -85 86 -85 84 0 c95 1 90 17 -8 27 -53 6 -59 10 -140 87 -47 45
-93 84 -102 88 -9 4 -105 7 -213 7 l-198 1 -105 102 c-58 56 -113 114 -123
130 -17 29 -32 37 -32 16z"/>
<path d="M1700 1530 c0 -13 7 -20 20 -20 13 0 20 7 20 20 0 13 -7 20 -20 20
-13 0 -20 -7 -20 -20z"/>
<path d="M1020 1435 c-27 -33 13 -80 50 -57 13 8 66 12 163 12 l143 0 59 -60
c44 -44 67 -60 87 -60 29 0 98 -52 98 -74 0 -31 229 -266 253 -258 4 1 60 -38
125 -86 182 -137 400 -261 521 -296 29 -9 59 -20 65 -25 6 -4 22 -11 36 -14
154 -33 243 -47 307 -47 l76 0 -7 32 c-3 17 -7 33 -9 34 -1 1 -46 7 -100 13
-289 32 -589 150 -817 319 -97 73 -302 270 -294 283 3 5 65 9 138 9 l134 0 87
-85 c86 -83 89 -85 136 -85 l49 0 0 -35 c0 -19 5 -35 10 -35 6 0 10 15 10 34
0 30 4 34 31 40 17 3 58 6 90 6 93 0 77 16 -19 19 -182 5 -192 8 -247 60 -27
26 -69 64 -93 84 l-42 37 -199 0 -199 0 -42 44 c-30 32 -52 45 -80 50 -29 4
-54 21 -102 66 l-63 60 -136 0 c-103 0 -140 3 -155 15 -25 19 -48 19 -64 0z
m844 -481 c5 -14 4 -15 -9 -4 -17 14 -19 20 -6 20 5 0 12 -7 15 -16z"/>
<path d="M2894 1420 c-62 -24 -134 -93 -166 -158 -49 -101 -19 -245 69 -321
72 -64 126 -85 218 -85 72 -1 88 3 148 32 138 68 199 214 150 358 -19 57 -96
139 -158 169 -59 29 -194 31 -261 5z m263 -34 c132 -66 189 -228 124 -353 -50
-98 -148 -154 -266 -154 -168 0 -285 111 -285 272 0 115 62 204 175 249 70 28
182 22 252 -14z"/>
<path d="M1770 1401 c0 -15 6 -21 21 -21 25 0 22 33 -4 38 -12 2 -17 -3 -17
-17z"/>
<path d="M1840 1406 c0 -21 21 -31 30 -15 5 7 6 17 4 21 -9 14 -34 9 -34 -6z"/>
<path d="M1912 1403 c2 -10 10 -18 18 -18 8 0 16 8 18 18 2 12 -3 17 -18 17
-15 0 -20 -5 -18 -17z"/>
<path d="M4187 1413 c-4 -3 -2 -12 4 -20 15 -17 59 -17 59 1 0 21 -47 35 -63
19z"/>
<path d="M4943 1374 c-14 -10 -62 -13 -198 -14 l-180 0 -76 -82 -76 -82 -204
3 -204 3 -94 -88 -94 -88 -66 -8 c-36 -4 -104 -8 -151 -9 l-85 -2 98 -10 97
-9 0 -29 c0 -40 18 -46 22 -7 3 32 5 33 55 38 49 5 57 10 136 88 l85 82 128 0
c190 0 186 5 74 -104 -141 -137 -212 -193 -345 -273 -221 -132 -460 -213 -685
-232 l-75 -6 -3 -37 -3 -38 61 0 c163 0 417 81 666 212 167 88 268 164 431
325 39 39 76 73 80 75 4 1 30 28 57 58 27 30 81 88 119 128 l69 73 181 -4
c100 -2 197 -8 214 -12 26 -6 34 -4 39 9 13 34 -41 64 -73 40z"/>
<path d="M1231 1273 c-12 -24 1 -46 25 -41 13 2 19 12 19 28 0 30 -30 39 -44
13z"/>
<path d="M1340 1245 c0 -21 5 -25 30 -25 25 0 30 4 30 25 0 21 -5 25 -30 25
-25 0 -30 -4 -30 -25z"/>
<path d="M4660 1236 c0 -30 13 -40 40 -31 13 4 20 15 20 31 0 20 -5 24 -30 24
-25 0 -30 -4 -30 -24z"/>
<path d="M4810 1250 c0 -5 7 -10 16 -10 8 0 12 5 9 10 -3 6 -10 10 -16 10 -5
0 -9 -4 -9 -10z"/>
<path d="M2295 870 c-20 -32 31 -74 61 -49 26 21 13 54 -23 57 -17 2 -34 -2
-38 -8z"/>
<path d="M3694 866 c-11 -29 1 -51 28 -54 22 -3 29 2 34 22 3 14 3 30 -1 35
-9 16 -55 13 -61 -3z"/>
<path d="M3575 762 c-38 -19 -115 -48 -170 -63 -84 -23 -94 -28 -59 -28 22 -1
72 10 110 23 86 29 214 88 214 99 0 13 -24 5 -95 -31z"/>
<path d="M2402 779 c9 -28 328 -134 328 -109 0 5 -7 10 -16 10 -24 0 -158 47
-230 80 -68 32 -88 37 -82 19z"/>
</g>
</svg>
