<?xml version="1.0" standalone="no"?>
<!DOCTYPE svg PUBLIC "-//W3C//DTD SVG 20010904//EN"
 "http://www.w3.org/TR/2001/REC-SVG-20010904/DTD/svg10.dtd">
<svg version="1.0" xmlns="http://www.w3.org/2000/svg"
 width="1211.000000pt" height="622.000000pt" viewBox="0 0 1211.000000 622.000000"
 preserveAspectRatio="xMidYMid meet">

<g transform="translate(0.000000,622.000000) scale(0.100000,-0.100000)"
fill="#ffffff" stroke="none">
<path d="M5690 6103 c-30 -14 -149 -65 -265 -115 -127 -54 -221 -100 -237
-116 -15 -15 -92 -126 -173 -247 -143 -216 -146 -221 -138 -260 4 -22 7 -65 7
-96 0 -68 -28 -113 -86 -139 l-40 -18 34 -24 c18 -14 46 -34 62 -45 l30 -20
69 111 70 111 -11 83 c-12 90 -9 112 17 112 13 0 17 -10 17 -42 0 -24 3 -70 8
-103 l8 -60 -75 -113 -75 -113 98 -69 c54 -39 100 -70 102 -70 2 0 2 19 0 43
-7 92 76 177 173 177 l42 0 141 216 c138 210 142 217 142 270 0 52 3 59 135
255 74 111 132 206 129 210 -5 8 -82 62 -111 77 -13 7 -34 3 -73 -15z m11
-171 c-30 -48 -33 -50 -109 -67 -42 -10 -84 -21 -93 -26 -8 -4 -38 -45 -67
-91 -28 -46 -61 -99 -74 -118 -18 -29 -19 -32 -4 -20 18 14 18 13 12 -8 -5
-16 -3 -22 7 -22 8 0 17 7 21 15 10 27 29 17 23 -12 -3 -18 0 -31 10 -38 12
-9 13 -16 4 -32 -8 -16 -7 -24 4 -33 23 -19 18 -33 -10 -26 -27 7 -34 -11 -13
-32 16 -16 2 -28 -15 -13 -11 9 -17 8 -28 -5 -11 -13 -10 -17 4 -25 9 -6 17
-17 17 -24 0 -18 -12 -19 -28 -3 -9 9 -16 7 -32 -7 -16 -14 -23 -16 -32 -7 -9
9 -17 7 -34 -9 -25 -23 -41 -11 -25 20 8 15 7 20 -5 25 -8 3 -17 -1 -20 -9
-10 -25 -27 -17 -20 9 8 31 -9 42 -30 21 -22 -22 -43 -3 -24 20 11 13 10 18
-8 31 -18 13 -20 19 -11 36 9 17 8 23 -5 30 -9 5 -16 16 -16 23 0 18 12 19 27
4 12 -12 33 -4 33 12 0 5 -7 9 -15 9 -8 0 -15 7 -15 16 0 12 7 14 30 9 29 -6
42 6 20 20 -5 3 -10 13 -10 21 0 10 7 13 24 8 13 -3 27 -1 30 5 4 6 20 11 36
11 15 0 30 6 33 13 4 9 7 9 18 -1 12 -11 12 -14 0 -21 -8 -5 -9 -11 -3 -15 6
-3 20 13 31 36 12 24 47 81 79 128 61 90 54 86 175 110 53 11 62 16 90 56 43
62 60 41 18 -24z m-374 -88 c15 -24 15 -29 2 -53 -8 -14 -24 -27 -34 -29 -11
-2 -32 -18 -47 -35 -33 -39 -50 -28 -20 13 13 17 18 31 12 35 -19 12 -11 63
12 79 32 23 55 20 75 -10z m259 -89 c14 -22 15 -30 4 -50 -15 -27 -46 -38 -71
-24 -27 14 -33 46 -15 74 22 33 60 33 82 0z m-356 -451 c0 -13 -104 -177 -142
-225 -13 -15 -48 -33 -48 -23 0 6 10 23 100 161 66 104 90 126 90 87z"/>
<path d="M5207 5541 l-46 -69 59 -41 c32 -22 64 -43 72 -46 10 -4 28 15 57 58
22 35 41 68 41 73 0 5 -21 23 -47 39 -98 61 -85 63 -136 -14z"/>
<path d="M5270 5825 c-14 -16 -5 -35 16 -35 15 0 20 35 5 44 -5 3 -14 -1 -21
-9z"/>
<path d="M5530 5745 c-16 -19 -5 -47 17 -43 22 4 29 43 9 51 -8 3 -20 -1 -26
-8z"/>
<path d="M5129 5943 c-13 -16 -12 -17 4 -4 16 13 21 21 13 21 -2 0 -10 -8 -17
-17z"/>
<path d="M4872 5701 c-34 -49 -62 -98 -62 -108 1 -25 35 -67 48 -59 9 5 48 64
136 207 22 35 12 49 -35 49 -21 0 -36 -16 -87 -89z"/>
<path d="M5681 5504 c0 -11 3 -14 6 -6 3 7 2 16 -1 19 -3 4 -6 -2 -5 -13z"/>
<path d="M4796 5467 c3 -10 9 -15 12 -12 3 3 0 11 -7 18 -10 9 -11 8 -5 -6z"/>
<path d="M5650 5436 c0 -2 8 -10 18 -17 15 -13 16 -12 3 4 -13 16 -21 21 -21
13z"/>
<path d="M5580 5329 c-12 -16 -21 -32 -19 -33 2 -2 112 -82 244 -178 343 -248
455 -330 482 -353 17 -15 27 -39 36 -90 l12 -69 270 -203 c335 -252 351 -263
390 -263 22 0 49 -14 95 -50 36 -28 82 -63 102 -78 21 -15 36 -32 34 -38 -3
-7 11 -7 46 0 48 10 51 9 74 -17 32 -38 31 -80 -2 -106 -54 -42 -118 -13 -118
54 0 31 -6 42 -38 68 -20 16 -35 34 -31 40 3 6 1 7 -5 3 -6 -3 -40 16 -77 44
-51 39 -74 50 -103 50 -31 1 -61 18 -192 116 -85 64 -228 170 -317 236 l-162
121 -10 51 c-6 28 -11 60 -13 71 -3 18 -132 122 -335 270 -37 27 -120 88 -183
135 -63 47 -138 102 -167 123 l-52 38 -50 -74 -49 -74 146 -114 c81 -63 232
-183 337 -266 104 -84 193 -153 198 -153 5 0 6 8 3 18 -3 9 -8 38 -12 65 l-6
48 -197 146 c-108 81 -202 152 -208 159 -7 7 -18 14 -25 16 -7 3 -9 12 -5 22
8 21 -10 33 264 -171 105 -78 197 -151 203 -162 6 -11 16 -57 22 -102 l11 -81
156 -127 c86 -70 282 -228 435 -351 154 -124 324 -263 379 -309 55 -46 112
-90 126 -97 17 -9 20 -14 10 -14 -10 0 -49 25 -88 56 -39 30 -71 51 -71 45 0
-5 10 -17 22 -25 21 -15 37 -53 17 -40 -5 3 -7 9 -4 13 5 8 -45 35 -52 28 -2
-2 3 -10 12 -17 8 -7 15 -17 15 -23 0 -5 -10 -2 -22 9 l-23 19 19 -22 c10 -13
22 -20 26 -18 11 7 40 -5 40 -17 0 -5 -5 -6 -12 -2 -7 4 -8 3 -4 -4 4 -6 13
-9 20 -6 7 3 19 -3 27 -13 13 -17 13 -17 -6 -3 -20 14 -20 14 -1 -7 10 -13 23
-20 27 -17 5 3 9 2 9 -3 0 -4 21 -9 47 -10 26 -1 64 -5 83 -8 19 -4 32 -3 28
1 -5 4 6 16 22 26 37 22 51 24 24 2 -19 -15 -18 -15 2 -5 11 5 37 28 57 51 36
39 47 57 27 45 -5 -3 -10 -2 -10 2 0 5 10 13 21 18 12 6 20 13 18 17 -2 4 6
15 18 23 14 10 20 21 16 32 -4 11 -3 14 5 9 7 -4 13 -1 13 6 3 24 -2 103 -8
132 l-5 30 -13 -25 c-7 -13 -11 -28 -8 -33 4 -5 1 -6 -5 -2 -7 4 -12 -6 -15
-26 -4 -32 -4 -32 -5 5 -4 80 -15 91 -362 337 -196 139 -440 313 -574 410
-143 104 -865 629 -931 677 -32 23 -62 43 -66 43 -4 0 -17 -14 -29 -31z m1082
-791 c21 -34 -2 -78 -40 -78 -35 0 -52 17 -52 51 0 15 -6 31 -12 35 -20 12 32
22 66 12 16 -4 33 -13 38 -20z m868 -722 c0 -2 -8 -10 -17 -17 -16 -13 -17
-12 -4 4 13 16 21 21 21 13z m-70 -96 c-19 -35 -77 -72 -122 -76 -43 -3 -43
-3 -6 5 42 9 86 35 111 68 22 28 31 30 17 3z m50 -33 c0 -2 -12 -14 -27 -28
l-28 -24 24 28 c23 25 31 32 31 24z"/>
<path d="M6597 4524 c-9 -10 4 -34 19 -34 8 0 14 9 14 20 0 19 -19 27 -33 14z"/>
<path d="M10770 5310 c0 -5 16 -10 35 -10 19 0 35 5 35 10 0 6 -16 10 -35 10
-19 0 -35 -4 -35 -10z"/>
<path d="M10910 5310 c0 -6 95 -10 265 -10 170 0 265 4 265 10 0 6 -95 10
-265 10 -170 0 -265 -4 -265 -10z"/>
<path d="M10585 5140 c-87 -87 -156 -162 -152 -167 8 -7 327 305 327 320 0 19
-26 -4 -175 -153z m55 36 c0 -2 -8 -10 -17 -17 -16 -13 -17 -12 -4 4 13 16 21
21 21 13z"/>
<path d="M4640 5031 c-44 -66 -50 -99 -21 -125 48 -44 358 -246 376 -246 24 0
47 23 93 91 37 55 48 42 -123 156 -66 44 -153 103 -194 132 -41 28 -78 51 -82
51 -5 0 -26 -27 -49 -59z m74 -10 c17 -19 17 -19 -2 -14 -15 4 -27 -5 -46 -33
-14 -21 -26 -36 -26 -32 0 6 53 98 56 98 0 0 9 -9 18 -19z m61 -41 c3 -6 -1
-7 -9 -4 -18 7 -21 14 -7 14 6 0 13 -4 16 -10z"/>
<path d="M5328 5003 c6 -2 18 -2 25 0 6 3 1 5 -13 5 -14 0 -19 -2 -12 -5z"/>
<path d="M10320 4870 c0 -5 5 -10 10 -10 6 0 10 5 10 10 0 6 -4 10 -10 10 -5
0 -10 -4 -10 -10z"/>
<path d="M5280 4496 c0 -8 -12 -17 -27 -19 -16 -2 44 -4 132 -4 88 0 150 2
138 4 -13 2 -23 11 -23 19 0 11 -21 14 -110 14 -89 0 -110 -3 -110 -14z"/>
<path d="M11230 4390 c0 -6 47 -10 120 -10 73 0 120 4 120 10 0 6 -47 10 -120
10 -73 0 -120 -4 -120 -10z"/>
<path d="M4690 4220 l0 -170 171 0 170 0 71 -75 71 -75 72 0 c65 0 73 2 78 21
3 11 15 23 26 26 19 5 21 13 21 77 l0 72 -63 62 -63 62 -165 0 c-152 0 -166
-1 -182 -20 -24 -28 -81 -27 -101 2 -35 49 -7 108 50 108 22 0 40 -7 51 -20
16 -19 30 -20 188 -20 l170 0 78 -78 77 -77 0 -83 0 -82 35 0 35 0 0 121 c0
117 -1 123 -25 145 -62 57 9 145 85 104 23 -12 36 -66 20 -85 -9 -11 -7 -12 9
-8 15 4 21 1 21 -12 0 -12 5 -15 16 -11 9 3 20 6 25 6 5 0 9 9 9 19 0 11 5 21
10 23 6 2 13 20 17 41 4 30 3 37 -11 37 -10 0 -16 9 -16 24 0 21 5 25 38 29
20 2 -194 4 -475 5 l-513 2 0 -170z"/>
<path d="M7106 4381 c44 -40 219 -160 224 -154 14 14 40 103 40 133 l0 30
-137 0 c-79 0 -133 -4 -127 -9z"/>
<path d="M5476 4274 c-4 -10 -2 -22 3 -27 15 -15 46 -3 46 18 0 26 -40 33 -49
9z"/>
<path d="M3300 4273 c0 -21 123 -162 189 -217 145 -121 285 -192 481 -246 119
-32 327 -73 338 -66 4 2 6 124 4 270 l-3 266 -504 0 c-278 0 -505 -3 -505 -7z
m905 -73 c38 -42 9 -110 -47 -110 -15 0 -37 9 -47 19 -18 18 -39 20 -255 23
-130 2 -236 1 -236 -3 0 -10 147 -88 222 -117 42 -17 115 -40 161 -52 l84 -22
26 26 c29 29 39 31 70 15 30 -16 37 -28 37 -66 0 -26 -6 -36 -30 -48 -37 -19
-65 -12 -86 21 -10 14 -26 24 -39 24 -92 0 -376 122 -484 209 l-64 51 285 0
284 0 22 25 c27 31 72 33 97 5z"/>
<path d="M4137 4173 c-14 -13 -6 -41 13 -46 23 -6 45 16 36 38 -5 15 -37 21
-49 8z"/>
<path d="M4130 3935 c-10 -12 -10 -18 0 -30 20 -25 55 -15 55 15 0 30 -35 40
-55 15z"/>
<path d="M4397 4274 c-9 -10 -9 -622 1 -626 4 -2 54 -2 110 0 l104 4 -6 311
-7 312 -97 3 c-54 1 -101 0 -105 -4z"/>
<path d="M6370 4270 c0 -5 5 -10 10 -10 6 0 10 5 10 10 0 6 -4 10 -10 10 -5 0
-10 -4 -10 -10z"/>
<path d="M4824 4255 c-8 -21 2 -45 19 -45 21 0 38 25 31 44 -8 20 -43 21 -50
1z"/>
<path d="M5972 4263 c59 -2 158 -2 220 0 62 1 14 3 -107 3 -121 0 -172 -2
-113 -3z"/>
<path d="M5770 4223 c-14 -3 -51 -30 -82 -61 l-58 -56 0 -78 c0 -71 2 -78 20
-78 15 0 20 -7 20 -25 0 -24 3 -25 56 -25 47 0 55 -3 52 -17 -2 -14 -16 -19
-53 -23 -49 -5 -50 -6 -50 -37 l0 -33 96 0 96 0 157 160 156 160 200 0 c127 0
200 4 200 10 0 6 -3 10 -8 10 -4 0 -34 22 -67 50 l-60 49 -325 -1 c-179 0
-336 -3 -350 -5z m219 -105 c21 -37 5 -80 -34 -91 -17 -5 -38 -14 -49 -19 -13
-7 -16 -6 -10 3 5 8 3 11 -7 7 -22 -8 -25 94 -3 116 26 27 85 17 103 -16z"/>
<path d="M5912 4108 c-7 -7 -12 -17 -12 -24 0 -18 26 -35 43 -28 24 9 30 37
11 51 -22 16 -27 16 -42 1z"/>
<path d="M6036 3915 l-158 -165 -104 0 -104 0 0 -40 0 -40 45 0 c38 0 45 -3
45 -20 0 -17 -7 -20 -45 -20 -38 0 -45 -3 -45 -20 0 -13 -7 -20 -19 -20 -15 0
-19 -11 -24 -67 -17 -176 -7 -348 22 -373 11 -10 197 -205 320 -337 l124 -133
63 0 c35 0 64 3 64 8 0 4 -20 28 -43 54 -70 77 -236 257 -334 361 l-93 99 0
139 c0 133 1 139 20 139 20 0 21 -6 19 -135 l-1 -135 143 -152 c79 -84 189
-201 244 -260 l102 -106 106 -4 c59 -1 107 -1 107 2 0 3 -28 23 -63 45 -84 53
-206 172 -256 248 -69 106 -85 163 -85 307 0 111 3 133 26 192 58 153 163 277
310 367 76 47 224 111 291 125 15 4 27 10 26 14 0 4 -24 26 -54 50 l-54 42
-218 0 -218 -1 -159 -164z m276 58 c43 -39 7 -113 -55 -113 -30 0 -49 -16
-170 -139 l-137 -139 0 -72 c0 -62 3 -76 25 -102 31 -36 31 -55 3 -85 -26 -28
-61 -30 -88 -3 -27 27 -25 66 5 94 23 21 25 31 25 105 l0 82 140 143 c123 126
140 147 140 176 0 18 7 42 17 52 20 22 70 23 95 1z"/>
<path d="M6241 3946 c-9 -11 -10 -20 -1 -35 13 -25 20 -26 46 -7 15 12 17 18
8 33 -15 24 -38 28 -53 9z"/>
<path d="M5910 3385 c-16 -20 -9 -49 14 -53 27 -6 48 25 35 49 -12 23 -32 24
-49 4z"/>
<path d="M7550 4046 c0 -2 8 -10 18 -17 15 -13 16 -12 3 4 -13 16 -21 21 -21
13z"/>
<path d="M4686 3898 c-3 -62 -5 -146 -4 -186 2 -69 3 -73 27 -78 188 -40 303
-223 272 -432 -14 -96 -71 -216 -138 -293 -57 -66 -183 -170 -235 -195 -21
-10 -38 -21 -38 -26 0 -4 92 -8 204 -8 l204 0 58 67 c33 37 121 132 197 212
l137 145 0 243 c0 231 -1 243 -19 243 -10 0 -21 9 -24 20 -5 18 -14 20 -82 20
l-77 0 -101 100 c-110 109 -129 117 -171 75 -14 -14 -34 -25 -44 -25 -29 0
-72 38 -72 64 0 64 73 88 124 41 15 -14 39 -25 54 -25 21 0 48 -21 117 -91 50
-50 100 -95 113 -100 12 -5 49 -6 81 -3 l59 7 -1 38 -1 39 -43 0 c-36 0 -43 3
-43 20 0 17 7 20 40 20 39 0 40 1 40 35 l0 35 -76 0 -76 0 -77 75 -77 75 -161
0 -161 0 -6 -112z m354 -288 c-13 -9 -13 -10 0 -11 8 -1 18 -1 21 -1 3 1 22
-16 42 -36 l35 -37 4 -188 c2 -171 1 -189 -15 -198 -16 -9 -17 3 -17 179 l0
188 -44 50 c-42 47 -48 64 -23 64 7 0 6 -4 -3 -10z"/>
<path d="M7586 3997 c3 -10 9 -15 12 -12 3 3 0 11 -7 18 -10 9 -11 8 -5 -6z"/>
<path d="M6854 3962 c17 -18 34 -32 38 -32 15 0 0 18 -35 41 l-32 22 29 -31z"/>
<path d="M7274 3942 c-29 -20 -14 -82 21 -82 17 0 45 27 45 45 0 30 -42 54
-66 37z"/>
<path d="M6835 3930 c-3 -5 -16 -11 -28 -11 -17 -1 -18 -2 -5 -6 10 -2 28 3
40 11 12 9 17 16 11 16 -7 0 -15 -4 -18 -10z"/>
<path d="M6891 3919 c-22 -9 -23 -11 -7 -27 9 -10 14 -21 11 -24 -3 -3 3 -11
12 -19 16 -13 17 -12 4 4 -8 10 -9 17 -3 17 15 0 43 -30 37 -40 -3 -4 3 -14
12 -21 12 -10 14 -10 9 -1 -4 7 -2 12 5 12 10 0 10 3 1 12 -17 17 -15 28 4 28
8 0 13 -4 10 -8 -2 -4 5 -8 17 -9 22 -2 22 -2 -1 15 -13 9 -38 29 -55 43 -26
21 -37 25 -56 18z m14 -20 c11 -16 1 -19 -13 -3 -7 8 -8 14 -3 14 5 0 13 -5
16 -11z m55 -31 c0 -12 -14 -10 -28 4 -19 19 -14 29 8 16 11 -7 20 -16 20 -20z"/>
<path d="M7612 3900 c0 -19 2 -27 5 -17 2 9 2 25 0 35 -3 9 -5 1 -5 -18z"/>
<path d="M6845 3911 c-3 -5 -2 -12 3 -15 5 -3 9 1 9 9 0 17 -3 19 -12 6z"/>
<path d="M5380 3765 l0 -125 118 0 c65 0 121 2 123 4 2 2 3 59 1 125 l-3 121
-120 0 -119 0 0 -125z"/>
<path d="M4824 3865 c-9 -23 3 -45 25 -45 23 0 35 28 20 46 -15 18 -38 18 -45
-1z"/>
<path d="M6991 3807 c2 -2 18 -11 34 -21 l30 -17 -24 20 c-13 12 -28 21 -34
21 -6 0 -8 -1 -6 -3z"/>
<path d="M7080 3786 c0 -2 8 -10 18 -17 15 -13 16 -12 3 4 -13 16 -21 21 -21
13z"/>
<path d="M7055 3730 c10 -11 20 -20 23 -20 3 0 -3 9 -13 20 -10 11 -20 20 -23
20 -3 0 3 -9 13 -20z"/>
<path d="M6379 3723 c-13 -16 -12 -17 4 -4 9 7 17 15 17 17 0 8 -8 3 -21 -13z"/>
<path d="M6249 3683 c-13 -16 -12 -17 4 -4 16 13 21 21 13 21 -2 0 -10 -8 -17
-17z"/>
<path d="M6247 3647 c-3 -8 1 -14 8 -14 7 0 11 6 8 14 -3 7 -6 13 -8 13 -2 0
-5 -6 -8 -13z"/>
<path d="M5410 3356 c0 -129 -4 -245 -9 -258 -9 -23 -214 -269 -323 -386 l-58
-63 0 -135 0 -135 47 36 c54 41 163 95 243 120 85 26 298 32 395 10 103 -23
196 -61 272 -113 34 -23 64 -42 67 -42 4 0 6 58 6 129 0 108 -3 131 -17 142
-18 15 -244 270 -365 413 l-78 91 0 213 0 212 -34 0 -34 0 -7 -107 c-5 -60 -5
-218 -2 -353 l6 -245 -44 -59 c-40 -53 -44 -63 -39 -98 8 -49 -15 -78 -61 -78
-63 0 -88 70 -39 109 15 12 35 21 45 21 10 0 36 23 59 53 l40 54 0 351 0 352
-35 0 -35 0 0 -234z m267 -528 c-2 -13 -4 -5 -4 17 -1 22 1 32 4 23 2 -10 2
-28 0 -40z m20 -15 c-3 -10 -5 -4 -5 12 0 17 2 24 5 18 2 -7 2 -21 0 -30z m34
-62 c14 -2 17 -30 3 -35 -7 -3 -13 -2 -13 2 4 23 -3 30 -27 26 -16 -3 -23 -1
-19 6 3 5 16 8 28 6 12 -3 25 -5 28 -5z m-81 -16 c-7 -9 -15 -13 -19 -10 -3 3
1 10 9 15 21 14 24 12 10 -5z m8 -67 c19 -22 9 -24 -12 -2 -9 8 -16 23 -15 32
0 14 2 14 6 2 3 -8 12 -23 21 -32z m77 2 c-17 -19 -35 -18 -35 1 0 6 4 8 8 5
5 -3 15 4 23 15 7 11 15 15 17 9 2 -6 -4 -20 -13 -30z"/>
<path d="M4618 3563 c7 -3 16 -2 19 1 4 3 -2 6 -13 5 -11 0 -14 -3 -6 -6z"/>
<path d="M6161 3374 c0 -11 3 -14 6 -6 3 7 2 16 -1 19 -3 4 -6 -2 -5 -13z"/>
<path d="M4901 3304 c0 -11 3 -14 6 -6 3 7 2 16 -1 19 -3 4 -6 -2 -5 -13z"/>
<path d="M6280 2966 c0 -2 8 -10 18 -17 15 -13 16 -12 3 4 -13 16 -21 21 -21
13z"/>
<path d="M4734 2918 l-29 -33 33 29 c17 17 32 31 32 33 0 8 -8 1 -36 -29z"/>
<path d="M5345 2730 c-12 -20 6 -50 30 -50 29 0 38 13 30 40 -7 21 -49 28 -60
10z"/>
<path d="M4404 2601 c-2 -2 -4 -62 -4 -133 l0 -128 270 0 271 0 -3 131 -3 131
-263 2 c-145 0 -266 -1 -268 -3z"/>
<path d="M6130 2472 l0 -132 266 2 267 3 1 127 1 127 -268 3 -267 3 0 -133z"/>
<path d="M5374 2523 c15 -4 16 -7 5 -14 -11 -7 -11 -9 -1 -9 7 0 10 -5 6 -12
-4 -6 -3 -8 4 -5 17 11 7 42 -14 44 -19 2 -19 2 0 -4z"/>
<path d="M5258 2493 c7 -3 16 -2 19 1 4 3 -2 6 -13 5 -11 0 -14 -3 -6 -6z"/>
<path d="M5029 2283 l-24 -28 28 24 c25 23 32 31 24 31 -2 0 -14 -12 -28 -27z"/>
<path d="M361 2224 c-23 -25 -41 -48 -38 -51 6 -6 97 78 97 90 0 16 -17 5 -59
-39z"/>
<path d="M281 2144 c-18 -21 -6 -30 14 -11 8 9 15 18 15 21 0 11 -15 5 -29
-10z"/>
<path d="M241 2106 c-7 -8 -8 -17 -3 -20 6 -3 15 1 21 8 7 8 8 17 3 20 -6 3
-15 -1 -21 -8z"/>
<path d="M121 1984 c-52 -51 -92 -97 -88 -101 4 -4 50 36 103 89 52 53 91 99
87 101 -4 3 -50 -37 -102 -89z"/>
<path d="M0 1860 c0 -5 5 -10 10 -10 6 0 10 5 10 10 0 6 -4 10 -10 10 -5 0
-10 -4 -10 -10z"/>
<path d="M3438 1843 c6 -2 18 -2 25 0 6 3 1 5 -13 5 -14 0 -19 -2 -12 -5z"/>
<path d="M6038 1843 c7 -3 16 -2 19 1 4 3 -2 6 -13 5 -11 0 -14 -3 -6 -6z"/>
<path d="M2568 1833 c7 -3 16 -2 19 1 4 3 -2 6 -13 5 -11 0 -14 -3 -6 -6z"/>
<path d="M2978 1833 c18 -2 45 -2 60 0 15 2 0 4 -33 4 -33 0 -45 -2 -27 -4z"/>
<path d="M3962 1833 c37 -2 100 -2 140 0 40 1 10 3 -67 3 -77 0 -110 -1 -73
-3z"/>
<path d="M6504 1555 c0 -159 2 -223 3 -142 2 82 2 212 0 290 -1 78 -3 12 -3
-148z"/>
<path d="M6758 1833 c7 -3 16 -2 19 1 4 3 -2 6 -13 5 -11 0 -14 -3 -6 -6z"/>
<path d="M7813 1833 c9 -2 23 -2 30 0 6 3 -1 5 -18 5 -16 0 -22 -2 -12 -5z"/>
<path d="M7942 1833 c48 -2 129 -2 180 0 51 1 12 3 -87 3 -99 0 -141 -2 -93
-3z"/>
<path d="M3884 1595 c0 -132 2 -185 3 -117 2 68 2 176 0 240 -1 64 -3 9 -3
-123z"/>
<path d="M2662 1683 c-2 -121 4 -153 23 -123 3 6 2 10 -4 10 -6 0 -12 47 -14
123 l-3 122 -2 -132z"/>
<path d="M5408 1763 c45 -2 119 -2 165 0 45 1 8 3 -83 3 -91 0 -128 -2 -82 -3z"/>
<path d="M5970 1757 c-48 -16 -113 -83 -128 -133 -45 -153 53 -293 206 -294
138 0 237 116 217 255 -10 61 -59 133 -109 159 -47 24 -136 30 -186 13z"/>
<path d="M6590 1640 l0 -132 103 4 c71 3 112 9 134 21 83 44 83 170 0 213 -21
12 -66 19 -134 22 l-103 5 0 -133z"/>
<path d="M7169 1753 c-13 -16 -12 -17 4 -4 16 13 21 21 13 21 -2 0 -10 -8 -17
-17z"/>
<path d="M2959 1723 l-24 -28 28 24 c25 23 32 31 24 31 -2 0 -14 -12 -28 -27z"/>
<path d="M3355 1734 c-73 -40 -115 -106 -115 -184 0 -79 55 -164 123 -189 44
-17 127 -13 174 8 124 57 139 265 25 345 -36 25 -54 31 -110 33 -48 2 -76 -1
-97 -13z"/>
<path d="M3995 1739 c-3 -8 -4 -98 -3 -199 l3 -185 69 -3 c84 -4 158 11 197
39 73 51 95 174 48 260 -37 67 -89 91 -210 97 -79 4 -100 2 -104 -9z"/>
<path d="M4757 1608 c-26 -62 -47 -116 -47 -120 0 -14 200 -9 200 4 0 16 -93
228 -100 228 -3 0 -27 -51 -53 -112z"/>
<path d="M2764 1648 l-19 -23 23 19 c12 11 22 21 22 23 0 8 -8 2 -26 -19z"/>
<path d="M6909 1503 c-13 -16 -12 -17 4 -4 9 7 17 15 17 17 0 8 -8 3 -21 -13z"/>
<path d="M2751 1497 c2 -1 15 -11 29 -22 l25 -20 -19 23 c-11 12 -24 22 -29
22 -6 0 -8 -1 -6 -3z"/>
<path d="M6851 1454 c0 -11 3 -14 6 -6 3 7 2 16 -1 19 -3 4 -6 -2 -5 -13z"/>
<path d="M2658 1330 c-2 -39 0 -70 5 -70 4 0 7 32 7 70 0 39 -2 70 -4 70 -2 0
-6 -32 -8 -70z"/>
<path d="M4738 1393 c39 -2 105 -2 145 0 39 1 7 3 -73 3 -80 0 -112 -2 -72 -3z"/>
<path d="M7160 1356 c0 -2 8 -10 18 -17 15 -13 16 -12 3 4 -13 16 -21 21 -21
13z"/>
<path d="M2578 1263 c12 -2 32 -2 45 0 12 2 2 4 -23 4 -25 0 -35 -2 -22 -4z"/>
<path d="M7952 1263 c48 -2 129 -2 180 0 51 1 12 3 -87 3 -99 0 -141 -2 -93
-3z"/>
<path d="M3433 1253 c9 -2 25 -2 35 0 9 3 1 5 -18 5 -19 0 -27 -2 -17 -5z"/>
<path d="M6078 1253 c7 -3 16 -2 19 1 4 3 -2 6 -13 5 -11 0 -14 -3 -6 -6z"/>
<path d="M7408 1253 c6 -2 18 -2 25 0 6 3 1 5 -13 5 -14 0 -19 -2 -12 -5z"/>
<path d="M4782 1024 c10 -3 19 -19 21 -37 4 -31 5 -31 3 3 -1 27 -5 35 -21 37
-14 1 -15 0 -3 -3z"/>
<path d="M4948 1023 c6 -2 18 -2 25 0 6 3 1 5 -13 5 -14 0 -19 -2 -12 -5z"/>
<path d="M5590 1026 c0 -2 7 -7 16 -10 8 -3 12 -2 9 4 -6 10 -25 14 -25 6z"/>
<path d="M5860 1026 c0 -2 7 -7 16 -10 8 -3 12 -2 9 4 -6 10 -25 14 -25 6z"/>
<path d="M6090 1026 c0 -2 7 -7 16 -10 8 -3 12 -2 9 4 -6 10 -25 14 -25 6z"/>
<path d="M3586 998 c10 -14 21 -24 23 -22 3 3 -6 15 -18 27 l-24 22 19 -27z"/>
<path d="M3924 930 c0 -52 1 -74 3 -47 2 26 2 68 0 95 -2 26 -3 4 -3 -48z"/>
<path d="M3994 930 c0 -52 1 -74 3 -47 2 26 2 68 0 95 -2 26 -3 4 -3 -48z"/>
<path d="M4153 960 c0 -36 2 -50 4 -32 2 17 2 47 0 65 -2 17 -4 3 -4 -33z"/>
<path d="M7180 1012 c0 -6 -12 -12 -27 -14 -28 -3 -28 -4 -29 -78 l-1 -75 4
73 c4 68 5 72 28 72 24 0 42 16 31 27 -3 4 -6 1 -6 -5z"/>
<path d="M7262 990 c0 -19 2 -27 5 -17 2 9 2 25 0 35 -3 9 -5 1 -5 -18z"/>
<path d="M7349 993 c-13 -16 -12 -17 4 -4 9 7 17 15 17 17 0 8 -8 3 -21 -13z"/>
<path d="M3260 980 c-27 -27 -26 -74 2 -100 46 -42 108 -14 108 50 0 29 -6 43
-22 54 -31 22 -64 20 -88 -4z"/>
<path d="M3490 960 l0 -41 36 3 c43 4 65 29 48 56 -6 10 -26 18 -48 20 l-36 3
0 -41z"/>
<path d="M4578 994 c-5 -4 -8 -34 -8 -66 l0 -58 39 0 c23 0 46 7 55 16 19 19
21 64 3 87 -13 19 -77 34 -89 21z"/>
<path d="M5283 993 c9 -2 25 -2 35 0 9 3 1 5 -18 5 -19 0 -27 -2 -17 -5z"/>
<path d="M6113 920 c0 -47 2 -66 4 -42 2 23 2 61 0 85 -2 23 -4 4 -4 -43z"/>
<path d="M6472 990 c-48 -20 -48 -99 1 -121 19 -9 31 -7 56 5 27 14 31 22 31
55 0 53 -39 80 -88 61z"/>
<path d="M7053 993 c9 -2 23 -2 30 0 6 3 -1 5 -18 5 -16 0 -22 -2 -12 -5z"/>
<path d="M7390 987 c-20 -10 -26 -21 -28 -54 -3 -38 0 -43 27 -58 76 -39 137
40 76 100 -27 28 -39 30 -75 12z"/>
<path d="M5427 963 c-2 -10 -8 -26 -12 -35 -6 -15 -2 -18 25 -18 27 0 31 3 25
18 -4 9 -10 25 -12 35 -3 9 -9 17 -13 17 -4 0 -10 -8 -13 -17z"/>
<path d="M6898 945 c-8 -19 -13 -37 -10 -40 7 -7 57 -6 65 1 6 7 -23 74 -33
74 -3 0 -13 -16 -22 -35z"/>
<path d="M4030 946 c0 -9 5 -16 10 -16 6 0 10 4 10 9 0 6 -4 13 -10 16 -5 3
-10 -1 -10 -9z"/>
<path d="M5990 946 c0 -9 5 -16 10 -16 6 0 10 4 10 9 0 6 -4 13 -10 16 -5 3
-10 -1 -10 -9z"/>
<path d="M7610 950 c0 -5 5 -10 11 -10 5 0 7 5 4 10 -3 6 -8 10 -11 10 -2 0
-4 -4 -4 -10z"/>
<path d="M6215 940 c-3 -5 1 -10 10 -10 9 0 13 5 10 10 -3 6 -8 10 -10 10 -2
0 -7 -4 -10 -10z"/>
<path d="M5008 933 c7 -3 16 -2 19 1 4 3 -2 6 -13 5 -11 0 -14 -3 -6 -6z"/>
<path d="M4106 915 c4 -8 8 -15 10 -15 2 0 4 7 4 15 0 8 -4 15 -10 15 -5 0 -7
-7 -4 -15z"/>
<path d="M6066 915 c4 -8 8 -15 10 -15 2 0 4 7 4 15 0 8 -4 15 -10 15 -5 0 -7
-7 -4 -15z"/>
<path d="M6296 916 c3 -9 11 -16 16 -16 13 0 5 23 -10 28 -7 2 -10 -2 -6 -12z"/>
<path d="M6723 913 c-15 -5 -17 -23 -4 -23 5 0 11 7 15 15 3 8 4 15 3 14 -1 0
-8 -3 -14 -6z"/>
<path d="M7695 910 c3 -5 8 -10 11 -10 2 0 4 5 4 10 0 6 -5 10 -11 10 -5 0 -7
-4 -4 -10z"/>
<path d="M3822 885 c0 -16 2 -22 5 -12 2 9 2 23 0 30 -3 6 -5 -1 -5 -18z"/>
<path d="M5882 885 c0 -16 2 -22 5 -12 2 9 2 23 0 30 -3 6 -5 -1 -5 -18z"/>
<path d="M7670 886 c0 -2 8 -10 18 -17 15 -13 16 -12 3 4 -13 16 -21 21 -21
13z"/>
<path d="M11799 353 c-13 -16 -12 -17 4 -4 9 7 17 15 17 17 0 8 -8 3 -21 -13z"/>
<path d="M11920 366 c0 -2 8 -10 18 -17 15 -13 16 -12 3 4 -13 16 -21 21 -21
13z"/>
<path d="M11749 303 c-13 -16 -12 -17 4 -4 9 7 17 15 17 17 0 8 -8 3 -21 -13z"/>
<path d="M11970 316 c0 -2 8 -10 18 -17 15 -13 16 -12 3 4 -13 16 -21 21 -21
13z"/>
<path d="M11740 186 c0 -2 8 -10 18 -17 15 -13 16 -12 3 4 -13 16 -21 21 -21
13z"/>
<path d="M11979 173 c-13 -16 -12 -17 4 -4 16 13 21 21 13 21 -2 0 -10 -8 -17
-17z"/>
<path d="M11790 136 c0 -2 8 -10 18 -17 15 -13 16 -12 3 4 -13 16 -21 21 -21
13z"/>
<path d="M11929 123 c-13 -16 -12 -17 4 -4 16 13 21 21 13 21 -2 0 -10 -8 -17
-17z"/>
</g>
</svg>

